<svg width="52" height="52" viewBox="0 0 52 52" fill="none" xmlns="http://www.w3.org/2000/svg">
<path d="M0 26C0 11.6406 11.6406 0 26 0V0C40.3594 0 52 11.6406 52 26V26C52 40.3594 40.3594 52 26 52V52C11.6406 52 0 40.3594 0 26V26Z" fill="#001404"/>
<g clip-path="url(#clip0_394_191)">
<mask id="mask0_394_191" style="mask-type:luminance" maskUnits="userSpaceOnUse" x="5" y="11" width="42" height="30">
<path d="M47 11H5V41H47V11Z" fill="white"/>
</mask>
<g mask="url(#mask0_394_191)">
<path fill-rule="evenodd" clip-rule="evenodd" d="M25.6677 40.9998C36.572 40.9413 46.5987 25.8464 46.5987 25.8464C46.5987 25.8464 36.5647 11.0587 25.6677 11.0002C14.7707 10.9417 5 25.861 5 25.861C5 25.861 14.9828 41.0583 25.6677 40.9998ZM25.7771 36.4525C31.5489 36.4525 36.2279 31.7735 36.2279 26.0017C36.2279 20.2298 31.5489 15.5508 25.7771 15.5508C20.0052 15.5508 15.3262 20.2298 15.3262 26.0017C15.3262 31.7735 20.0052 36.4525 25.7771 36.4525ZM32.0888 25.999C32.0888 29.4847 29.263 32.3105 25.7773 32.3105C22.2916 32.3105 19.4658 29.4847 19.4658 25.999C19.4658 22.5132 22.2916 19.6875 25.7773 19.6875C29.263 19.6875 32.0888 22.5132 32.0888 25.999Z" fill="#B1FFB4"/>
</g>
</g>
<defs>
<clipPath id="clip0_394_191">
<rect width="42" height="30" fill="white" transform="translate(5 11)"/>
</clipPath>
</defs>
</svg>
