<svg width="32" height="32" viewBox="0 0 32 32" fill="none" xmlns="http://www.w3.org/2000/svg">
<g clip-path="url(#clip0_436_222)">
<path d="M16.3068 12.3364V14.0627M16.3068 17.5152V19.2415M16.3068 22.694V24.4203M7.67548 12.3364H19.7593C20.2171 12.3364 20.6562 12.5183 20.98 12.842C21.3037 13.1658 21.4856 13.6049 21.4856 14.0627V16.6521C21.0277 16.6521 20.5887 16.834 20.2649 17.1577C19.9412 17.4814 19.7593 17.9205 19.7593 18.3783C19.7593 18.8362 19.9412 19.2753 20.2649 19.599C20.5887 19.9227 21.0277 20.1046 21.4856 20.1046V22.694C21.4856 23.1518 21.3037 23.5909 20.98 23.9146C20.6562 24.2384 20.2171 24.4203 19.7593 24.4203H7.67548C7.21765 24.4203 6.77857 24.2384 6.45483 23.9146C6.13109 23.5909 5.94922 23.1518 5.94922 22.694V20.1046C6.40705 20.1046 6.84613 19.9227 7.16987 19.599C7.49361 19.2753 7.67548 18.8362 7.67548 18.3783C7.67548 17.9205 7.49361 17.4814 7.16987 17.1577C6.84613 16.834 6.40705 16.6521 5.94922 16.6521V14.0627C5.94922 13.6049 6.13109 13.1658 6.45483 12.842C6.77857 12.5183 7.21765 12.3364 7.67548 12.3364Z" stroke="url(#paint0_linear_436_222)" stroke-linecap="round" stroke-linejoin="round"/>
<path d="M17.4131 8.00426L18.7078 10.2467M21.9978 7.40067L21.3276 9.90183M25.6665 10.2158L23.424 11.5104M26.2701 14.8005L23.7689 14.1303" stroke="url(#paint1_linear_436_222)" stroke-linecap="round" stroke-linejoin="round"/>
</g>
<defs>
<linearGradient id="paint0_linear_436_222" x1="13.7174" y1="12.3364" x2="13.7174" y2="24.4203" gradientUnits="userSpaceOnUse">
<stop stop-color="#5DBCFF"/>
<stop offset="1" stop-color="#BA26F4"/>
</linearGradient>
<linearGradient id="paint1_linear_436_222" x1="22.8525" y1="7.62968" x2="21.2887" y2="13.4657" gradientUnits="userSpaceOnUse">
<stop stop-color="#5DBCFF"/>
<stop offset="1" stop-color="#BA26F4"/>
</linearGradient>
<clipPath id="clip0_436_222">
<rect width="32" height="32" fill="white"/>
</clipPath>
</defs>
</svg>
